# xmcd CD database file
#
# Track frame offsets:
#	150
#	23610
#	45693
#	70761
#	86903
#	110394
#	128286
#	139222
#	159370
#	180291
#	203795
#	220703
#
# Disc length: 3244 seconds
#
# Revision: 0
# Processed by: cddbd v1.5.1PL2 Copyright (c) Steve Scherf et al.
# Submitted via: CDex 1.51
#
DISCID=960caa0c
DTITLE=Various Italian Jazz - Venice Lounge
DYEAR=2005
DGENRE=Jazz
TTITLE0=Intraspettro (Les Hommes)
TTITLE1=Have Mercy (Pluton Kids)
TTITLE2=Vite Possibili (Di Malta)
TTITLE3=Senza Trucco (Traccia Mista)
TTITLE4=Breeze (Marko Bokun)
TTITLE5=Tu Vuo Fa L'Americano (Quadro Nuevo)
TTITLE6=Bambino (Andre Toussaint)
TTITLE7=Casa Di Moda (Guido and Maurizio De Angelis)
TTITLE8=Existentialism - Milano Dub Remix (The Dining Rooms)
TTITLE9=Round Midnight (Duran Y Garcia)
TTITLE10=Mediterranean Rain (Tirovi Umoto)
TTITLE11=La Maison 2 (Gabin)
EXTD=YEAR: 2005
EXTT0=
EXTT1=
EXTT2=
EXTT3=
EXTT4=
EXTT5=
EXTT6=
EXTT7=
EXTT8=
EXTT9=
EXTT10=
EXTT11=
PLAYORDER=
